<?xml version="1.0" standalone="no"?><!DOCTYPE svg PUBLIC "-//W3C//DTD SVG 1.1//EN" "http://www.w3.org/Graphics/SVG/1.1/DTD/svg11.dtd"><svg t="1618996592353" class="icon" viewBox="0 0 1024 1024" version="1.1" xmlns="http://www.w3.org/2000/svg" p-id="919" xmlns:xlink="http://www.w3.org/1999/xlink" width="200" height="200"><defs><style type="text/css"></style></defs><path d="M0 547.56693333c0 52.70186667 13.85813333 94.208 41.50613333 124.45013334 27.648 30.1056 65.67253333 45.19253333 114.00533334 45.19253333 39.04853333 0 71.13386667-11.19573333 96.11946666-33.45066667s40.5504-51.2 46.62613334-86.76693333H227.66933333c-4.64213333 16.7936-10.51306667 29.4912-17.54453333 37.888-12.76586667 15.63306667-31.3344 23.48373333-55.7056 23.48373333a73.728 73.728 0 0 1-58.70933333-27.30666666c-15.42826667-18.29546667-23.1424-45.73866667-23.1424-82.3296s7.30453333-64.9216 21.9136-84.92373334 34.54293333-30.03733333 59.8016-30.03733333c24.84906667 0 43.6224 7.09973333 56.25173333 21.2992 7.09973333 7.91893333 12.83413333 19.72906667 17.408 35.4304h70.99733333c-1.09226667-20.41173333-8.8064-40.68693333-23.27893333-60.89386667-26.14613333-36.0448-67.51573333-54.0672-124.04053333-54.0672-42.25706667 0-77.07306667 13.44853333-104.448 40.3456C15.70133333 446.73706667 0 490.63253333 0 547.56693333zM504.96853333 438.4768c14.60906667 0 25.6 1.8432 32.90453334 5.7344 12.9024 6.82666667 19.456 20.0704 19.456 39.86773333 0 18.29546667-6.69013333 30.5152-20.13866667 36.72746667-7.5776 3.54986667-18.90986667 5.3248-34.13333333 5.3248h-76.45866667V438.4768h78.37013333z m14.7456-56.7296h-162.47466666v326.38293333h69.35893333V580.13013333h69.35893333c19.79733333 0 33.24586667 3.4816 40.41386667 10.4448 7.168 6.9632 10.92266667 20.82133333 11.19573333 41.5744l0.54613334 30.3104a152.91733333 152.91733333 0 0 0 7.5776 45.60213334h78.2336v-8.12373334a27.30666667 27.30666667 0 0 1-13.03893334-18.56853333 162.06506667 162.06506667 0 0 1-1.8432-30.37866667v-21.84533333c0-22.9376-3.20853333-39.936-9.76213333-51.06346667s-17.68106667-19.72906667-33.24586667-25.8048c18.6368-6.21226667 32.1536-16.7936 40.27733334-31.81226666a94.89066667 94.89066667 0 0 0 12.288-45.73866667c0-12.83413333-2.11626667-24.23466667-6.28053334-34.33813333a103.424 103.424 0 0 0-17.13493333-27.4432 83.69493333 83.69493333 0 0 0-31.88053333-22.80106667c-12.4928-5.12-30.37866667-7.91893333-53.58933334-8.3968zM860.50133333 638.42986667l-61.8496-256.68266667h-103.35573333v326.38293333h66.1504V487.424c0-6.41706667 0-15.29173333-0.13653333-26.76053333l-0.27306667-26.48746667 63.8976 273.95413333h69.08586667l64.37546666-273.95413333-0.27306666 26.48746667-0.27306667 26.76053333v220.70613333h66.1504V381.7472h-102.12693333l-61.37173334 256.68266667z" p-id="920"></path><path d="M118.03306667 307.2A443.86986667 443.86986667 0 0 1 905.89866667 307.2h75.22986666C902.00746667 126.42986667 721.85173333 0 512 0S121.92426667 126.42986667 42.8032 307.2h75.22986667zM861.86666667 785.06666667a443.1872 443.1872 0 0 1-699.73333334 0H79.39413333a510.976 510.976 0 0 0 865.14346667 0h-82.67093333z" p-id="921"></path></svg>