<?xml version="1.0" standalone="no"?><!DOCTYPE svg PUBLIC "-//W3C//DTD SVG 1.1//EN" "http://www.w3.org/Graphics/SVG/1.1/DTD/svg11.dtd"><svg t="1619075847781" class="icon" viewBox="0 0 1024 1024" version="1.1" xmlns="http://www.w3.org/2000/svg" p-id="2284" xmlns:xlink="http://www.w3.org/1999/xlink" width="200" height="200"><defs><style type="text/css"></style></defs><path d="M974.27152592 163.08148148c-1.69908148-8.00995555-6.67496297-14.92764445-13.59265184-19.29671111-6.91768889-4.36906667-15.4130963-5.70405925-23.3016889-3.64088889-34.46708148 8.49540741-68.57007408 12.86447408-101.45943703 12.86447407-114.93072592 0-213.11336297-48.42382222-300.37333333-148.18417777-5.70405925-6.5536-14.0781037-10.31585185-22.81623704-10.31585186-8.73813333 0-17.11217778 3.76225185-22.81623703 10.31585186-78.76456297 90.05131852-210.07928889 148.18417778-334.47632593 148.18417777-22.33078518 0-45.63247408-2.18453333-71.24005927-6.5536-16.14127408-2.79134815-31.43300741 7.76722963-34.83117037 23.78714075-10.55857778 50.60835555-15.89854815 102.43034075-15.89854815 154.25232592 0 152.43188148 45.26838518 299.40242963 130.95063705 424.77037037 41.26340741 60.43875555 91.02222222 114.44527408 147.82008889 160.68456296 57.28331852 46.60337778 120.87751111 84.34725925 188.84077036 112.3821037 3.64088889 1.57771852 7.64586667 2.3058963 11.52948149 2.3058963s7.88859259-0.72817778 11.52948148-2.3058963c67.96325925-28.03484445 131.55745185-65.77872592 188.84077037-112.3821037 56.79786667-46.23928889 106.55668148-100.24580741 147.82008888-160.68456296 85.68225185-125.36794075 130.95063703-272.33848889 130.95063704-424.77037037 0-54.00651852-5.82542222-108.25576297-17.47626667-161.41274074zM512.60681482 961.16432592c-254.6194963-110.07620741-418.4594963-358.62755555-418.4594963-636.79146667 0-38.10797037 3.15543703-76.3373037 9.34494815-113.95982222 17.96171852 2.06317037 35.0738963 3.15543703 51.82198518 3.15543705 70.26915555 0 143.2082963-16.01991111 210.92882963-46.36065186 55.7056-25.00077037 105.58577778-58.49694815 146.12100741-98.06127407 40.04977778 41.26340741 83.01226667 73.91004445 128.03792593 97.3330963 60.19602963 31.31164445 125.97475555 47.21019259 195.51573333 47.21019258 27.79211852 0 56.31241482-2.66998518 84.95407407-7.88859258 6.79632592 39.3216 10.31585185 79.12865185 10.31585186 118.69297777-0.12136297 278.04254815-163.96136297 526.71525925-418.58085926 636.6701037z" p-id="2285"></path><path d="M370.85487408 548.40888889c-16.62672592-2.54862222-28.03484445 3.15543703-34.46708149 17.23354074-12.74311111 48.42382222-26.82121482 93.69220741-42.11294814 135.80515555-3.88361482 17.84035555 1.94180741 29.97665185 17.23354073 36.28752593 17.84035555 3.88361482 29.24847408-2.54862222 34.46708149-19.17534814 16.50536297-50.97244445 30.58346667-95.63401482 42.11294815-133.86334815 2.54862222-16.50536297-3.2768-28.64165925-17.23354074-36.28752593zM326.92148148 418.30779259c-12.74311111-10.19448889-24.27259259-9.58767408-34.46708148 1.94180741-10.19448889 11.52948148-9.58767408 22.9376 1.94180741 34.46708148 17.84035555 15.29173333 35.0738963 30.58346667 51.57925926 45.8752 13.95674075 10.19448889 26.82121482 9.58767408 38.22933333-1.9418074 8.8594963-13.95674075 7.64586667-26.82121482-3.88361482-38.22933333-16.50536297-14.0781037-34.34571852-28.03484445-53.3997037-42.11294816zM730.33197037 489.0624H600.35223703v-86.04634075H707.39437037c13.95674075-1.21362963 21.60260741-8.8594963 22.9376-22.9376-1.33499259-13.95674075-8.98085925-21.60260741-22.9376-22.9376h-107.04213334V295.97392592c-1.33499259-16.50536297-10.19448889-25.48622222-26.82121481-26.82121481-15.29173333 1.33499259-23.54441482 10.19448889-24.8794074 26.82121481v61.16693333h-105.2216889c-14.0781037 1.33499259-21.72397037 8.98085925-22.9376 22.9376 1.21362963 14.0781037 8.8594963 21.72397037 22.9376 22.9376h105.2216889v86.04634075h-126.21748149c-12.74311111 1.33499259-20.38897778 8.98085925-22.9376 22.9376 2.54862222 14.0781037 10.19448889 21.72397037 22.9376 22.9376h101.33807408c-25.48622222 42.11294815-53.52106667 82.16272592-84.10453333 120.51342222-11.52948148 15.29173333-15.29173333 28.03484445-11.52948149 38.22933333 8.8594963 15.29173333 22.9376 22.33078518 42.11294816 20.9957926 57.40468148-3.88361482 124.88248889-7.64586667 202.67614814-11.52948148 5.09724445 7.64586667 9.58767408 15.29173333 13.34992593 22.9376 10.19448889 13.95674075 22.9376 16.50536297 38.22933333 7.64586666 12.74311111-8.98085925 15.29173333-20.99579259 7.64586667-36.28752592-26.82121482-37.0157037-54.24924445-73.91004445-82.16272593-110.92574816-10.19448889-11.52948148-22.33078518-14.68491852-36.28752592-9.58767407-11.52948148 8.98085925-14.0781037 19.78216297-7.64586667 32.52527407 10.19448889 14.0781037 21.60260741 31.31164445 34.46708148 51.57925927-47.21019259 1.33499259-93.69220741 3.15543703-139.56740741 5.70405926-3.88361482-1.21362963-5.09724445-3.88361482-3.88361482-7.64586667 30.58346667-37.0157037 59.22512592-75.85185185 86.04634075-116.62980741 2.54862222-1.21362963 3.88361482-3.88361482 3.88361481-7.64586667H730.45333333c13.95674075-1.21362963 21.60260741-8.8594963 22.9376-22.9376-1.45635555-13.83537778-9.10222222-21.48124445-23.05896296-22.81623703zM395.73428148 338.08687408c-16.62672592-15.29173333-34.46708148-29.97665185-53.52106666-43.9333926-11.52948148-8.8594963-23.54441482-8.25268148-36.28752593 1.94180741-7.64586667 11.52948148-7.03905185 22.33078518 1.94180741 32.52527408 17.84035555 15.29173333 35.68071111 31.31164445 53.52106667 47.8170074 12.74311111 10.19448889 24.87940741 9.58767408 36.28752592-1.9418074 10.19448889-12.86447408 9.46631111-25.00077037-1.94180741-36.40888889z" p-id="2286"></path></svg>