<?xml version="1.0" standalone="no"?><!DOCTYPE svg PUBLIC "-//W3C//DTD SVG 1.1//EN" "http://www.w3.org/Graphics/SVG/1.1/DTD/svg11.dtd"><svg t="1619075629504" class="icon" viewBox="0 0 1024 1024" version="1.1" xmlns="http://www.w3.org/2000/svg" p-id="1700" xmlns:xlink="http://www.w3.org/1999/xlink" width="200" height="200"><defs><style type="text/css"></style></defs><path d="M768 704 384 704l0-64 384 0L768 704zM768 384 384 384l0 64 384 0L768 384zM768 512 384 512l0 64 384 0L768 512zM768 768 384 768l0 64 384 0L768 768zM128 832l64 0 0 64L128 896 64 896l0-64L64 0l576 0 64 0 0 64 0 64-64 0L640 64 128 64 128 832zM256 192l0 832 640 0L896 192 256 192zM832 960 320 960 320 256l512 0L832 960z" p-id="1701"></path></svg>