<?xml version="1.0" standalone="no"?><!DOCTYPE svg PUBLIC "-//W3C//DTD SVG 1.1//EN" "http://www.w3.org/Graphics/SVG/1.1/DTD/svg11.dtd"><svg t="1619075549998" class="icon" viewBox="0 0 1024 1024" version="1.1" xmlns="http://www.w3.org/2000/svg" p-id="1554" xmlns:xlink="http://www.w3.org/1999/xlink" width="200" height="200"><defs><style type="text/css"></style></defs><path d="M177.31267606 417.51885324l20.8591998-26.06282252-26.88124457 6.75477367-14.15782825-25.12020852-12.75694771 38.61485494-35.06422002 17.3743873 23.95156692 5.80719351-6.00217403 34.74132294 28.36409003-31.8749834 28.36284848 10.63451579L177.31267606 417.51885324 177.31267606 417.51885324zM92.06640731 584.46696599l-35.79322428 48.23720968-46.2861617 7.68124276 28.36284848 30.93361216-26.12740217 53.10551503 46.30727399-36.66504848 32.78158051 31.86629018 2.25655862-51.11845137 40.36719654-32.80393558-42.54303057-1.99327258L92.06640731 584.46696599 92.06640731 584.46696599zM299.75677428 280.49095126l13.50582272 7.75203134 6.00217404-19.37759588 20.80579765-16.4417093-16.3659521-2.86633953 0-15.43327411-17.16947081 20.3053053-23.19648299 3.87229043 8.18421821 15.36496861-14.18018209 20.24942007L299.75677428 280.49095126 299.75677428 280.49095126zM387.13292663 448.38167681l-64.23679734 20.2345167-29.86804899-56.91446733-19.42975525 81.1082092-68.73004504 35.66779081 54.52378204 12.56941887-12.6489019 82.02970969 53.00864554-68.53506451 62.80859557 19.30804764-22.49604271-63.67048379L387.13292663 448.38167681 387.13292663 448.38167681zM276.66212818 810.28059409l-9.01257504-58.78479197-31.34716981 48.17263002-63.56367951-1.86908187 40.36595378 42.47720938-25.34623732 56.00041855 56.77537325-28.94654851 42.54799796 40.50132324-2.99053025-60.85878912 55.29997827-25.06183901L276.66212818 810.28059409 276.66212818 810.28059409zM481.10488781 37.85807189l-118.40414971 972.94455786 127.84766885 2.69371285-3.12465696-975.63827071C483.28320614 32.41724283 481.10488781 37.85807189 481.10488781 37.85807189L481.10488781 37.85807189zM881.92665494 136.90201217c0 0-99.64626951-63.74127358-288.36514657-19.00129546 0 0 241.13513055-22.99653507 301.92934002 161.27132012 0 0 41.98168561 186.94542314-101.66686455 330.60515082 0 0-103.82158749 115.21491308-173.08441349 143.65972769L528.54602926 17.60865181c0 0-7.32232878-12.10991077-7.32232878 6.80320842l0 978.33198358c0 0 112.1660121-39.30535921 122.6614338-58.29920299l-14.69681937-121.97217105c0 0 308.28173358-154.46066002 371.14497282-410.52360492C1000.41277076 411.94762452 1059.1603043 223.56530517 881.92665494 136.90201217L881.92665494 136.90201217zM881.92665494 136.90201217" p-id="1555"></path></svg>