<?xml version="1.0" standalone="no"?><!DOCTYPE svg PUBLIC "-//W3C//DTD SVG 1.1//EN" "http://www.w3.org/Graphics/SVG/1.1/DTD/svg11.dtd"><svg t="1619075788110" class="icon" viewBox="0 0 1024 1024" version="1.1" xmlns="http://www.w3.org/2000/svg" p-id="1992" xmlns:xlink="http://www.w3.org/1999/xlink" width="200" height="200"><defs><style type="text/css"></style></defs><path d="M554.18538667 252.36935111H327.69137778v523.59964444h114.45589333V593.32039111h112.03811556c129.85457778 3.27452445 193.20376889-53.57454222 189.95313778-170.47552 1.58947555-113.62645333-61.71192889-170.47552-189.95427556-170.47552z m-21.92384 265.45379556h-90.112v-192.39822222h90.112c64.91704889-1.59175111 96.59164445 30.86791111 94.976 97.41994666 3.22901333 64.96369778-28.42168889 96.61553778-94.976 94.97827556z m-28.11448889 407.12305778c-205.47356445 0-376.63630222-149.64280889-410.23488-345.67168l41.40373333-8.0440889-88.90368-117.25368888-46.90716444 143.63875555 36.72746666-7.14069333c16.53873778 95.73603555 61.99751111 183.90357333 132.13582222 253.99182222 89.68533333 89.71264 208.93468445 139.08536889 335.77756445 139.08536889 157.97248 0 305.17020445-78.24839111 393.72117333-209.33745778l-48.57059555-32.81578667C771.64088889 856.33024 642.61461333 924.94620445 504.14592 924.94620445z m472.82289777-460.34147556c-10.10915555-110.18581333-57.84689778-212.47203555-137.07036444-291.67160889-89.68647111-89.71036445-208.93240889-139.08536889-335.75367111-139.08536889-158.01799111 0-305.21799111 78.24952889-393.76668445 209.33859556l48.59335112 32.81351111c77.63285333-114.93034667 206.66026667-183.54744889 345.17333333-183.54744889 213.15925333 0 389.35324445 161.07975111 413.41383111 367.90499556l-38.34311111-2.72839112 55.37564445 136.33194667 82.6413511-126.48675555-40.26368-2.86947556z" fill="" p-id="1993"></path></svg>