<?xml version="1.0" standalone="no"?><!DOCTYPE svg PUBLIC "-//W3C//DTD SVG 1.1//EN" "http://www.w3.org/Graphics/SVG/1.1/DTD/svg11.dtd"><svg t="1619075914447" class="icon" viewBox="0 0 1024 1024" version="1.1" xmlns="http://www.w3.org/2000/svg" p-id="2579" xmlns:xlink="http://www.w3.org/1999/xlink" width="200" height="200"><defs><style type="text/css"></style></defs><path d="M356.1440648 1012.61477863l57.7467632-967.73467401 48.58661042 2.89976573-57.74676322 967.734674zM991.75588347 207.26569086c-50.48699259-100.71507753-178.64628148-146.93009383-330.36616694-134.24361876 1.55344592 8.28504494 2.33016889 16.82899753 2.3301689 25.37295012 95.7958321 14.62828247 171.78522864 58.77203753 207.90284642 130.74836543 71.84687408 143.04647902-38.31833283 345.77117235-248.16298667 476.77844544L543.32782617 7.13007408l-48.41573135 5.56651456 115.08445235 1004.04388346 48.41573135-5.56651457-30.55110321-266.67488395c16.44063605-6.86105283 32.8812721-14.11046717 49.32190816-22.3955121 252.69387061-126.7352968 393.66908839-357.29256297 314.5728-514.83787062zM154.70743703 376.97965827l13.07483655-15.14609777-20.06534321-1.29453828-10.35630618-17.08790519-7.24941432 18.64135112-19.5475279 4.66033777 15.53445927 12.68647506-1.68289976 19.93588939 16.82899754-10.74466765 18.51189728 7.76722963zM294.12920889 208.94859061l-8.93231407 22.65441976-23.56059655 5.56651457 18.77080493 15.40500543-2.07126123 24.20786568 20.4537047-13.07483655 22.39551209 9.45012939-6.08432987-23.56059654 15.79336692-18.38244346-24.20786568-1.42399209zM250.7621768 435.36333431l-17.6057205 44.92047804-46.99173927 11.0035753 37.28270222 30.68055704-4.01306864 48.1568237 40.64850174-26.14967308 44.53211654 18.77080494-12.29811358-46.73283161 31.58673383-36.50597925-48.15682371-2.84798421zM81.95438617 604.30057876l-20.0653432-33.01072593-13.98101334 35.98816397-37.67106371 8.80286023 29.90383408 24.46677334-3.23634569 38.57724049 32.49291063-20.84206617 35.59980247 14.88719013-9.70903704-37.28270223 25.2434963-29.25656494zM257.62322963 763.26987852l-28.73874963-47.38010074-20.19479703 51.65207704-53.85279211 12.55702123 42.84921679 35.21144098-4.66033778 55.14733038 46.60337778-29.90383408 51.13426174 21.48933531-14.11046717-53.59388445 36.24707161-41.94304z" fill="#999999" p-id="2580"></path></svg>