<?xml version="1.0" standalone="no"?><!DOCTYPE svg PUBLIC "-//W3C//DTD SVG 1.1//EN" "http://www.w3.org/Graphics/SVG/1.1/DTD/svg11.dtd"><svg t="1618991624330" class="icon" viewBox="0 0 1024 1024" version="1.1" xmlns="http://www.w3.org/2000/svg" p-id="14196" xmlns:xlink="http://www.w3.org/1999/xlink" width="200" height="200"><defs><style type="text/css"></style></defs><path d="M685.130927 748.568976c-6.493659 0-13.187122-0.39961-19.780683-0.79922-61.639805-5.294829-117.485268-34.566244-157.246439-81.92-22.278244-26.574049-37.763122-57.244098-46.454634-89.612488L401.108293 645.369756l-99.003317-113.089561c-121.181659 40.96-213.79122 155.148488-237.667903 296.610342h673.342439c-4.89522-28.771902-12.787512-56.145171-22.877658-82.119805-9.890341 1.098927-19.780683 1.798244-29.770927 1.798244zM401.208195 523.688585c18.481951 0 36.164683-3.29678 52.84839-8.991219 0-6.094049 0.099902-12.088195 0.699317-17.982439 6.393756-73.528195 47.853268-136.966244 106.595903-174.829268-16.883512-73.028683-82.019902-127.575415-160.14361-127.575415-90.91122 0-164.739122 73.728-164.739122 164.639219s73.728 164.739122 164.739122 164.739122z" p-id="14197"></path><path d="M944.977171 727.889171l-91.910244-103.798634c16.883512-26.274341 27.87278-56.744585 30.769951-89.812293 4.595512-52.948293-11.588683-104.597854-45.855219-145.457951-34.166634-40.760195-82.219707-65.735805-135.168-70.231415-109.493073-9.490732-206.098732 71.630049-215.689366 181.02322-4.795317 52.948293 11.588683 104.597854 45.855219 145.258146 34.266537 40.760195 82.119805 65.735805 135.168 70.431219 31.269463 2.697366 61.340098-2.097951 88.813268-12.787512l93.109074 105.097366c10.689561 12.68761 25.674927 20.579902 42.158829 21.978537s32.568195-3.69639 45.255805-14.286049c26.174439-22.078439 29.571122-61.240195 7.492683-87.414634zM833.885659 529.682732c-7.093073 81.820098-79.422439 142.261073-161.042732 135.068097-81.820098-7.093073-142.261073-79.322537-135.068098-161.042731S616.997463 361.347122 698.817561 368.64c81.620293 7.093073 142.161171 79.122732 135.068098 161.042732z" p-id="14198"></path><path d="M696.71961 394.614634c-3.496585-0.39961-7.093073-0.499512-10.489756-0.599414-27.073561 0-52.348878 9.290927-72.529171 24.975609-5.194927 3.896195-6.094049 11.388878-2.097951 16.583805 3.996098 5.095024 11.388878 5.994146 16.583805 1.998049 16.184195-12.387902 36.46439-19.780683 58.043317-19.780683 2.697366 0 5.594537 0.199805 8.291902 0.39961 25.37522 2.297756 47.253854 14.585756 63.038439 32.068683 5.694439 6.293854 14.485854 3.096976 16.78361 1.098927 4.995122-4.295805 5.494634-11.88839 1.198829-16.78361-19.381073-22.178341-47.253854-37.26361-78.823024-39.960976z" p-id="14199"></path></svg>