<?xml version="1.0" standalone="no"?><!DOCTYPE svg PUBLIC "-//W3C//DTD SVG 1.1//EN" "http://www.w3.org/Graphics/SVG/1.1/DTD/svg11.dtd"><svg t="1618996583525" class="icon" viewBox="0 0 1033 1024" version="1.1" xmlns="http://www.w3.org/2000/svg" p-id="777" xmlns:xlink="http://www.w3.org/1999/xlink" width="201.7578125" height="200"><defs><style type="text/css"></style></defs><path d="M491.35847401 826.50129201q4.08148801 19.387067 13.26483596 41.83525099t26.52967103 45.406552 44.896366 45.406552 68.36492199 41.83525099q-27.55004301 7.142604-63.26306197 11.22409195-30.61115899 4.08148801-74.99733902 7.14260405t-102.547383 3.061116q-29.590787 0-67.854736-2.040744t-79.589013-6.122232-81.629757-9.18334801-73.976967-10.20371999-56.630644-10.71390599-29.080601-10.71390601q-10.20372-8.16297601-15.81576499-49.99822599t4.59167401-107.13905601q6.122232-37.753763 30.61115898-57.14083t56.63064399-31.12134499 67.34455001-21.42781101 62.752876-27.03985701q21.427811-13.264836 32.65190301-25.50929896t15.81576499-24.48892702 4.59167401-25.509299-1.02037201-28.57041501q-2.04074401-24.488927-15.81576499-37.753763t-31.12134501-27.55004299q-8.16297601-7.142604-14.28520798-19.89725299t-11.22409202-26.01948501q-5.10186003-15.30557897-10.20372-31.63153101-7.142604-2.04074401-14.28520802-7.142604-6.122232-5.10186003-12.75464997-14.28520798t-11.73427802-26.52967102-3.57130199-31.12134498 5.61204596-24.99911301q4.08148801-12.24446399 12.24446404-22.44818301 0-38.774135 4.081488-77.54826899 4.08148801-32.65190302 14.285208-69.89548t31.631531-66.834364q19.387067-27.55004301 42.855623-45.406552t47.957482-28.060229 49.48803998-14.28520801 47.44729602-4.08148798q29.590787 0 56.630644 7.14260399t49.99822599 18.36669499 41.32506501 25.509299 29.59078698 28.57041501q25.50929899 32.65190302 38.26394903 71.936224t17.85650899 73.976967q5.10186003 40.81487899 4.081488 81.629757 7.142604 5.10186003 11.224092 13.26483602 4.08148801 7.142604 6.632418 18.36669498t0.51018599 27.550043q-2.04074401 22.448183-8.67316198 35.202833t-14.79539299 19.897253q-9.183348 8.16297601-19.38706702 11.224092-5.10186003 16.325951-10.20371998 31.63153103-5.10186003 13.264836-11.22409202 26.01948495t-14.28520802 19.897253q-9.183348 8.16297601-14.28520798 15.81576502t-8.162976 15.815765-6.632418 17.85650901-10.71390599 20.91762498q-23.46855499 36.73339099-36.73339101 69.38529401t-18.366695 62.75287601-3.06111599 58.161202 8.16297599 55.61027198zM1013.78892102 963.23113501q14.28520799 17.346323 15.81576497 29.59078698t-9.693534 23.46855502q-6.122232 7.142604-15.81576498 7.65278999t-20.40743901-3.57130202-20.407439-10.20371995-16.836137-12.24446403l-71.42603801-65.30380598q-28.570415 17.346323-60.712132 24.99911298t-64.28343398 5.61204602-62.75287602-15.81576502-55.10008601-39.284321q-28.570415-28.570415-42.855623-64.79362t-14.28520798-73.97696698 14.28520798-73.97696703 42.855623-64.79362q27.55004301-28.570415 63.26306202-42.85562299t72.44641001-14.28520799 72.44640999 14.28520799 64.28343399 42.85562299q24.488927 25.50929899 38.26394901 57.14083002t16.32595101 64.28343397-5.10186002 65.30380602-24.99911297 60.20194599l38.77413498 38.77413501q15.30557897 15.30557897 28.57041501 29.08060101t17.34632298 17.856509zM769.92002099 899.96807402q26.529671 0 49.998226-10.20372003t40.81487902-28.06022899 27.55004297-41.83525101 10.20372002-51.52878402-10.20372002-51.01859797-27.55004297-41.325065-40.81487902-28.06022902-49.99822598-10.20371999-49.99822601 10.20371999-40.814879 28.06022902-27.55004297 41.325065-10.20372003 51.01859797 10.20372003 51.52878404 27.55004297 41.83525099 40.814879 28.06022899 49.99822601 10.20371998z" p-id="778"></path></svg>