<?xml version="1.0" standalone="no"?><!DOCTYPE svg PUBLIC "-//W3C//DTD SVG 1.1//EN" "http://www.w3.org/Graphics/SVG/1.1/DTD/svg11.dtd"><svg t="1619075876698" class="icon" viewBox="0 0 1024 1024" version="1.1" xmlns="http://www.w3.org/2000/svg" p-id="2431" xmlns:xlink="http://www.w3.org/1999/xlink" width="200" height="200"><defs><style type="text/css"></style></defs><path d="M953.86906294 940.06065558H70.13093706c-46.94858842 0-82.85044939-35.90186097-82.85044939-82.85044938v-552.33632967c0-46.94858842 35.90186097-82.85044939 82.85044939-82.85044936h883.73812588c46.94858842 0 82.85044939 35.90186097 82.85044939 82.85044936v552.33632967c0 46.94858842-35.90186097 82.85044939-82.85044939 82.85044938z m-883.73812588-662.80359507c-16.57008987 0-27.61681602 11.04672615-27.61681733 27.61681602v552.33632967c0 16.57008987 11.04672615 27.61681602 27.61681733 27.61681602h883.73812588c16.57008987 0 27.61681602-11.04672615 27.61681733-27.61681602v-552.33632967c0-16.57008987-11.04672615-27.61681602-27.61681733-27.61681602H70.13093706z" p-id="2432"></path><path d="M677.70089876 249.64024319h-55.23363335c0-60.75699579-49.71026963-110.46726541-110.46726541-110.46726541s-110.46726541 49.71026963-110.46726541 110.46726541h-55.23363335c0-91.13549431 74.56540445-165.70089876 165.70089876-165.70089877s165.70089876 74.56540445 165.70089876 165.70089877zM622.46726541 567.23363335h386.63543089v55.23363206H622.46726541zM14.8973037 567.23363335h386.63543089v55.23363206H14.8973037z" p-id="2433"></path><path d="M594.85044939 691.50930742h-165.70089878c-30.37849854 0-55.23363335-27.61681602-55.23363334-63.51867828v-93.89717554c0-35.90186097 24.85513482-63.51867829 55.23363334-63.51867829h165.70089878c30.37849854 0 55.23363335 27.61681602 55.23363334 63.51867829v93.89717554c0 35.90186097-24.85513482 63.51867829-55.23363334 63.51867828z m-2.76168122-165.70089877h-160.17753634V627.99062914c0 5.52336372 2.76168122 8.28504494 2.76168251 8.28504494H594.85044939s2.76168122-2.76168122 2.76168121-8.28504494v-93.89717554c-2.76168122-5.52336372-5.52336372-8.28504494-5.52336243-8.28504495z m2.76168122 110.46726543z" p-id="2434"></path></svg>