<?xml version="1.0" standalone="no"?><!DOCTYPE svg PUBLIC "-//W3C//DTD SVG 1.1//EN" "http://www.w3.org/Graphics/SVG/1.1/DTD/svg11.dtd"><svg t="1619076067707" class="icon" viewBox="0 0 1024 1024" version="1.1" xmlns="http://www.w3.org/2000/svg" p-id="3173" xmlns:xlink="http://www.w3.org/1999/xlink" width="200" height="200"><defs><style type="text/css"></style></defs><path d="M944.32 716.8v182.08H79.68V512h320.85333333c-1.6 7.25333333-2.24 15.04-2.24 22.72 0 62.82666667 50.98666667 113.81333333 113.81333334 113.81333333s113.81333333-50.98666667 113.81333333-113.81333333c0-7.78666667-0.64-15.46666667-2.24-22.72h320.85333333v68.26666667c0 12.58666667 10.24 22.72 22.72 22.72 12.58666667 0 22.72-10.24 22.72-22.72V261.65333333c0-25.17333333-20.37333333-45.54666667-45.54666666-45.54666666H716.8v-90.98666667c0-25.17333333-20.37333333-45.54666667-45.54666667-45.54666667H352.74666667c-25.17333333 0-45.54666667 20.37333333-45.54666667 45.54666667v90.98666667H79.68c-25.17333333 0-45.54666667 20.37333333-45.54666667 45.54666666v637.12c0 25.17333333 20.37333333 45.54666667 45.54666667 45.54666667h864.74666667c25.17333333 0 45.54666667-20.37333333 45.54666666-45.54666667V716.8c0-12.58666667-10.24-22.72-22.72-22.72-12.69333333 0-22.93333333 10.13333333-22.93333333 22.72zM488.53333333 599.04c-27.52-9.28-44.8-35.30666667-44.8-64.32 0-4.90666667 0.42666667-9.38666667 1.38666667-13.65333333 0.64-3.09333333 1.49333333-6.08 2.45333333-9.06666667h128.85333334c1.06666667 3.09333333 1.92 6.29333333 2.66666666 9.70666667 0.85333333 3.62666667 1.17333333 8.21333333 1.17333334 13.01333333 0 45.33333333-44.26666667 80.42666667-91.73333334 64.32zM352.74666667 125.12h318.61333333v90.98666667H352.74666667v-90.98666667z m-273.06666667 136.53333333h864.74666667v204.8H79.68v-204.8z" fill="#333333" p-id="3174"></path></svg>