<?xml version="1.0" standalone="no"?><!DOCTYPE svg PUBLIC "-//W3C//DTD SVG 1.1//EN" "http://www.w3.org/Graphics/SVG/1.1/DTD/svg11.dtd"><svg t="1619079201370" class="icon" viewBox="0 0 1024 1024" version="1.1" xmlns="http://www.w3.org/2000/svg" p-id="11904" xmlns:xlink="http://www.w3.org/1999/xlink" width="200" height="200"><defs><style type="text/css"></style></defs><path d="M510.656168 0C228.451444 0 0 228.451444 0 510.656168c0 16.125984 10.750656 26.87664 26.87664 26.87664s26.87664-10.750656 26.876641-26.87664C53.753281 258.015748 258.015748 53.753281 510.656168 53.753281s456.902887 204.262467 456.902887 456.902887-204.262467 456.902887-456.902887 456.902887c-56.440945 0-112.88189-8.062992-161.259843-26.87664 99.44357-24.188976 209.637795-115.569554 290.267717-249.952756 94.068241-147.821522 123.632546-317.144357 69.879265-416.587927-13.43832-24.188976-32.251969-48.377953-56.440945-61.816273-24.188976-13.43832-51.065617-24.188976-86.005249-24.188976h-10.750656c-51.065617 0-99.44357 56.440945-112.88189 147.821522-10.750656 43.002625-5.375328 88.692913 13.43832 118.257218 10.750656 24.188976 29.564304 37.627297 51.065617 37.627297l10.750656 10.750656v10.750656c-13.43832 29.564304-29.564304 56.440945-48.377953 80.629921-13.43832 24.188976-32.251969 48.377953-51.065616 69.879265-5.375328 5.375328-10.750656 5.375328-13.438321 5.375328H403.149606c-10.750656-13.43832-24.188976-29.564304-43.002624-32.251968-32.251969-5.375328-86.005249 10.750656-131.695538 43.002625-69.879265 51.065617-104.818898 123.632546-80.629922 169.322834l5.375328 5.375328c13.43832 29.564304 32.251969 59.128609 61.816273 72.566929 2.687664 0 5.375328 2.687664 5.375328 2.687665 2.687664 5.375328 5.375328 10.750656 10.750657 13.43832 77.942257 51.065617 174.698163 80.629921 279.51706 80.629921 282.204724 0 510.656168-228.451444 510.656168-510.656168C1021.312336 228.451444 792.860892 0 510.656168 0zM196.199475 833.175853s-5.375328-5.375328-5.375328-10.750656c-13.43832-24.188976 13.43832-75.254593 67.191601-112.88189 32.251969-24.188976 75.254593-37.627297 99.44357-32.251968 10.750656 5.375328 13.43832 10.750656 13.43832 13.43832 0 0 10.750656 18.813648 32.251968 24.188976 13.43832 5.375328 32.251969-5.375328 48.377953-18.813648l5.375328-5.375328c18.813648-24.188976 37.627297-48.377953 56.440945-75.254593s32.251969-61.816273 48.377953-88.692914v-5.375328c5.375328-13.43832 5.375328-29.564304 0-43.002625-10.750656-18.813648-32.251969-29.564304-32.251969-29.564304h-5.375328c-13.43832 0-18.813648-10.750656-24.188976-13.43832-10.750656-24.188976-13.43832-56.440945-10.750656-94.068242 10.750656-61.816273 48.377953-107.506562 69.879265-107.506561h10.750656c24.188976 0 48.377953 5.375328 67.191601 18.813648 13.43832 10.750656 29.564304 24.188976 37.627297 43.002625 48.377953 86.005249 18.813648 241.889764-67.191602 378.96063-107.506562 169.322835-274.141732 268.766404-368.209973 212.325459-18.813648-10.750656-34.939633-29.564304-43.002625-53.753281z" p-id="11905"></path></svg>