<?xml version="1.0" standalone="no"?><!DOCTYPE svg PUBLIC "-//W3C//DTD SVG 1.1//EN" "http://www.w3.org/Graphics/SVG/1.1/DTD/svg11.dtd"><svg t="1619079070770" class="icon" viewBox="0 0 1024 1024" version="1.1" xmlns="http://www.w3.org/2000/svg" p-id="4626" xmlns:xlink="http://www.w3.org/1999/xlink" width="200" height="200"><defs><style type="text/css"></style></defs><path d="M 515.24 46.53 c -246.711 0 -446.71 199.998 -446.71 446.71 c 0 246.71 199.999 446.709 446.71 446.709 c 246.712 0 446.71 -199.998 446.71 -446.71 S 761.952 46.53 515.24 46.53 Z m 27.627 275.446 c 26.034 -44.604 45.468 -76.555 72.837 -120.38 c 10.43 -15.37 22.71 -9.538 30.81 -4.009 c 4.714 2.366 17.926 12.408 32.081 22.992 L 590.14 369.092 c -14.827 -8.514 -26.935 -16.1 -38.867 -23.203 c -11.868 -7.067 -11.294 -18.966 -8.406 -23.913 Z m -225.233 413.99 c -14.804 -8.45 -16.92 -18.789 -7.617 -33.463 c 16.073 -25.356 30.747 -51.593 46.292 -77.288 c 28.992 -47.923 20.95 -57.157 81.847 -16.407 c 0.549 0.366 0.754 1.247 2.428 4.176 c -28.478 47.805 -56.804 95.35 -86.114 144.547 c -13.723 -8.047 -25.21 -14.927 -36.836 -21.564 Z M 721.62 372.066 c -23.929 126.152 -86.733 231.627 -174.75 322.907 c -33.379 34.616 -73.067 61.059 -121.496 69.818 c -16.521 2.988 -34.037 0.474 -56.478 0.474 c 30.924 -52.046 57.625 -97.318 84.906 -142.238 c 2.118 -3.488 8.328 -4.456 12.59 -6.685 c 11.527 -6.029 27.491 -9.146 33.8 -18.655 c 35.246 -53.132 68.79 -107.438 101.286 -162.307 c 5.969 -10.078 10.128 -27.847 5.228 -36.39 c -10.815 -18.855 -2.034 -30.768 6.601 -44.706 c 8.72 -14.076 17.01 -28.42 25.5 -42.64 c 15.61 -26.153 31.23 -52.301 48.528 -81.271 c 7.245 9.914 12.15 16.586 16.546 23.149 c 9.434 14.08 20.412 34.665 21.893 58.634 c 1.118 10.612 -1.13 43.97 -4.154 59.91 Z" fill="#8a8a8a" p-id="4627"></path></svg>