<?xml version="1.0" standalone="no"?><!DOCTYPE svg PUBLIC "-//W3C//DTD SVG 1.1//EN" "http://www.w3.org/Graphics/SVG/1.1/DTD/svg11.dtd"><svg t="1619075968484" class="icon" viewBox="0 0 1024 1024" version="1.1" xmlns="http://www.w3.org/2000/svg" p-id="2725" xmlns:xlink="http://www.w3.org/1999/xlink" width="200" height="200"><defs><style type="text/css"></style></defs><path d="M512 11.37777778c-276.10074075 0-500.62222222 224.52148148-500.62222222 500.62222222s224.52148148 500.62222222 500.62222222 500.62222222 500.62222222-224.52148148 500.62222222-500.62222222S788.10074075 11.37777778 512 11.37777778z m0 952.69925925c-249.27952592 0-452.07703703-202.79751111-452.07703703-452.07703703S262.72047408 59.92296297 512 59.92296297 964.07703703 262.72047408 964.07703703 512 761.27952592 964.07703703 512 964.07703703z" fill="#999999" p-id="2726"></path><path d="M682.02951111 605.57084445c-5.09724445-44.41884445-27.67075555-70.99733333-67.84189629-79.85682963v-1.3349926c24.87940741-6.31087408 44.54020741-19.6608 58.9824-39.92841481 12.62174815-18.56853333 19.05398518-39.68568889 19.05398518-63.35146666 0-42.71976297-13.95674075-75.48776297-41.87022222-98.304-26.2144-20.75306667-62.50192592-31.06891852-108.98394075-31.06891853H340.87822222v452.68385186h69.17688889V557.38974815h122.33386667c26.2144 0 45.99656297 5.46133333 59.58921481 16.50536296 13.59265185 11.89357037 21.60260741 29.97665185 24.15122963 54.49197037l5.70405926 56.43377777c2.54862222 26.2144 9.10222222 45.99656297 19.6608 59.58921483h74.75958519c-15.17037037-16.50536297-24.02986667-38.71478518-26.57848889-66.62826667l-7.64586667-72.21096296z m-81.19182222-126.8242963c-15.65582222 13.1072-38.47205925 19.6608-68.44871111 19.6608H410.05511111V350.70862222h121.72705186c31.67573333 0 54.97742222 5.94678518 69.7837037 17.7189926 14.32082963 11.77220741 21.60260741 30.21937778 21.60260741 55.09878518-0.12136297 24.27259259-7.5245037 42.5984-22.33078519 55.22014815z" fill="#999999" p-id="2727"></path></svg>