<?xml version="1.0" standalone="no"?><!DOCTYPE svg PUBLIC "-//W3C//DTD SVG 1.1//EN" "http://www.w3.org/Graphics/SVG/1.1/DTD/svg11.dtd"><svg t="1619076112895" class="icon" viewBox="0 0 1024 1024" version="1.1" xmlns="http://www.w3.org/2000/svg" p-id="3319" xmlns:xlink="http://www.w3.org/1999/xlink" width="200" height="200"><defs><style type="text/css"></style></defs><path d="M512 2.27555555C230.51377778 2.27555555 2.27555555 230.51377778 2.27555555 512s228.23822222 509.72444445 509.72444445 509.72444445 509.72444445-228.23822222 509.72444445-509.72444445S793.48622222 2.27555555 512 2.27555555z m0 932.97777778c-233.69955555 0-423.25333333-189.55377778-423.25333333-423.25333333s189.55377778-423.25333333 423.25333333-423.25333333 423.25333333 189.55377778 423.25333333 423.25333333-189.55377778 423.25333333-423.25333333 423.25333333z m99.55555555-380.81422222c39.59466667-14.56355555 89.20177778-55.75111111 89.20177778-135.62311111 0-81.00977778-51.76888889-149.16266667-164.06755555-149.16266667H359.53777778c-5.00622222 0-9.10222222 4.096-9.10222223 9.10222222v466.4888889c0 5.00622222 4.096 9.10222222 9.10222223 9.10222222h62.00888889c5.00622222 0 9.10222222-4.096 9.10222222-9.10222222V567.97866667h100.92088889l84.87822222 181.13422222c1.47911111 3.18577778 4.66488889 5.23377778 8.192 5.23377778h70.54222222c1.36533333 0 2.73066667-0.34133333 3.98222223-0.91022222 4.55111111-2.27555555 6.37155555-7.62311111 4.096-12.17422223l-91.7048889-186.82311111zM523.37777778 504.03555555h-92.72888889V335.64444445h94.89066666c54.61333333 0 92.04622222 28.78577778 92.04622223 85.90222222 0 53.36177778-33.90577778 82.48888889-94.208 82.48888888z" p-id="3320"></path></svg>