<?xml version="1.0" standalone="no"?><!DOCTYPE svg PUBLIC "-//W3C//DTD SVG 1.1//EN" "http://www.w3.org/Graphics/SVG/1.1/DTD/svg11.dtd"><svg t="1619076035349" class="icon" viewBox="0 0 1024 1024" version="1.1" xmlns="http://www.w3.org/2000/svg" p-id="3020" xmlns:xlink="http://www.w3.org/1999/xlink" width="200" height="200"><defs><style type="text/css"></style></defs><path d="M331.264 548.57159111l-4.51697778 0.07281778c-79.57845333 2.48718222-143.89020445 70.80277333-143.89020444 155.35559111 0 86.12522667 66.74318222 155.42840889 148.40718222 155.42840889h345.30759111l2.74204444 0.09102222a36.57159111 36.57159111 0 0 1-2.74204444 73.05216H331.264l-5.48522667-0.07281778c-120.10154667-2.99918222-216.064-104.448-216.064-228.49877333 0-125.93379555 98.88881778-228.57159111 221.54922667-228.57159111h361.472c81.64579555 0 148.40718222-69.30204445 148.40718222-155.42840889 0-84.55281778-64.31061333-152.86840889-143.90840889-155.35559111l-4.48056888-0.07281778H347.42840889a36.57159111 36.57159111 0 0 1-2.74204444-73.05216l2.74204444-0.09102222H692.736c122.66040889 0 221.54922667 102.63893333 221.54922667 228.57159111 0 124.05077333-95.94424889 225.49959111-216.08220445 228.49877333l-5.48522667 0.07281778H331.28220445z" p-id="3021"></path><path d="M210.28522667 0a137.14318222 137.14318222 0 1 1 0 274.28522667 137.14318222 137.14318222 0 0 1 0-274.28522667z m0 73.14318222a64 64 0 1 0 0 128 64 64 0 0 0 0-128zM813.71591111 749.71477333a137.14318222 137.14318222 0 1 1 0 274.28522667 137.14318222 137.14318222 0 0 1 0-274.28522667z m0 73.14204445a64 64 0 1 0 0 128 64 64 0 0 0 0-128z" p-id="3022"></path></svg>