<?xml version="1.0" standalone="no"?><!DOCTYPE svg PUBLIC "-//W3C//DTD SVG 1.1//EN" "http://www.w3.org/Graphics/SVG/1.1/DTD/svg11.dtd"><svg t="1619076011150" class="icon" viewBox="0 0 1146 1024" version="1.1" xmlns="http://www.w3.org/2000/svg" p-id="2872" xmlns:xlink="http://www.w3.org/1999/xlink" width="223.828125" height="200"><defs><style type="text/css"></style></defs><path d="M261.754543 99.833606h550.760486v35.276893H261.754543z" p-id="2873"></path><path d="M1146.49901 340.774783H0V99.833606h88.633193v35.276893H35.276893v170.387391h1075.945224V135.110499h-117.736629v-35.276893H1146.49901v240.941177zM149.309448 468.388942h66.144174v35.276892h-66.144174zM279.569374 468.388942h66.144173v35.276892h-66.144173zM409.917492 468.388942h66.144174v35.276892h-66.144174zM540.177418 468.388942h66.144174v35.276892h-66.144174zM670.437344 468.388942h66.144174v35.276892h-66.144174zM800.69727 468.388942h66.232366v35.276892h-66.232366zM930.957196 468.388942h66.144173v35.276892h-66.144173zM149.309448 586.47834h66.144174v35.276892h-66.144174zM279.569374 586.47834h66.144173v35.276892h-66.144173zM409.917492 586.47834h66.144174v35.276892h-66.144174zM540.177418 586.47834h66.144174v35.276892h-66.144174zM670.437344 586.47834h66.144174v35.276892h-66.144174zM800.69727 586.47834h66.232366v35.276892h-66.232366zM930.957196 586.47834h66.144173v35.276892h-66.144173zM149.309448 704.567737h66.144174v35.276893h-66.144174zM279.569374 704.567737h66.144173v35.276893h-66.144173zM409.917492 704.567737h66.144174v35.276893h-66.144174zM540.177418 704.567737h66.144174v35.276893h-66.144174zM670.437344 704.567737h66.144174v35.276893h-66.144174zM800.69727 704.567737h66.232366v35.276893h-66.232366zM930.957196 704.567737h66.144173v35.276893h-66.144173zM149.309448 822.568943h66.144174v35.276893h-66.144174zM279.569374 822.568943h66.144173v35.276893h-66.144173zM409.917492 822.568943h66.144174v35.276893h-66.144174zM540.177418 822.568943h66.144174v35.276893h-66.144174zM670.437344 822.568943h66.144174v35.276893h-66.144174zM800.69727 822.568943h66.232366v35.276893h-66.232366zM930.957196 822.568943h66.144173v35.276893h-66.144173z" p-id="2874"></path><path d="M1146.49901 1024H0V324.547412h35.276893v664.175695h1075.945224V324.547412h35.276893v699.452588zM275.159762 232.38653h-132.288347V0h132.288347z m-97.011454-35.276893h61.734562V35.276893h-61.734562zM1003.980363 232.38653h-132.288347V0h132.288347z m-97.011454-35.276893h61.734562V35.276893h-61.734562z" p-id="2875"></path></svg>